<mxfile host="app.diagrams.net" modified="2023-09-15T09:24:12.714Z" agent="Mozilla/5.0 (Windows NT 10.0; Win64; x64) AppleWebKit/537.36 (KHTML, like Gecko) Chrome/116.0.0.0 Safari/537.36" etag="Wc7_Qxz3V9uxlK4oxjso" version="21.7.5" type="github">
  <diagram name="第 1 页" id="VKd-qjujKesGQ1febqvN">
    <mxGraphModel dx="2062" dy="668" grid="1" gridSize="10" guides="1" tooltips="1" connect="1" arrows="1" fold="1" page="1" pageScale="1" pageWidth="827" pageHeight="1169" math="0" shadow="0">
      <root>
        <mxCell id="0" />
        <mxCell id="1" parent="0" />
        <mxCell id="gyGsSk6S5XEilyyl5GHN-1" value="os_license_template&lt;br&gt;许可证模板" style="rounded=0;whiteSpace=wrap;html=1;" vertex="1" parent="1">
          <mxGeometry x="340" y="30" width="190" height="70" as="geometry" />
        </mxCell>
        <mxCell id="gyGsSk6S5XEilyyl5GHN-6" style="edgeStyle=orthogonalEdgeStyle;rounded=0;orthogonalLoop=1;jettySize=auto;html=1;exitX=0.5;exitY=0;exitDx=0;exitDy=0;" edge="1" parent="1" source="gyGsSk6S5XEilyyl5GHN-2" target="gyGsSk6S5XEilyyl5GHN-1">
          <mxGeometry relative="1" as="geometry" />
        </mxCell>
        <mxCell id="gyGsSk6S5XEilyyl5GHN-2" value="os_license_application&lt;br&gt;许可证申请" style="rounded=0;whiteSpace=wrap;html=1;" vertex="1" parent="1">
          <mxGeometry x="355" y="200" width="160" height="70" as="geometry" />
        </mxCell>
        <mxCell id="gyGsSk6S5XEilyyl5GHN-5" style="edgeStyle=orthogonalEdgeStyle;rounded=0;orthogonalLoop=1;jettySize=auto;html=1;exitX=1;exitY=0.5;exitDx=0;exitDy=0;entryX=0;entryY=0.5;entryDx=0;entryDy=0;" edge="1" parent="1" source="gyGsSk6S5XEilyyl5GHN-4" target="gyGsSk6S5XEilyyl5GHN-2">
          <mxGeometry relative="1" as="geometry" />
        </mxCell>
        <mxCell id="gyGsSk6S5XEilyyl5GHN-4" value="os_license_application_archive_attachment&lt;br&gt;许可证归档附件" style="rounded=0;whiteSpace=wrap;html=1;" vertex="1" parent="1">
          <mxGeometry x="-70" y="135" width="250" height="75" as="geometry" />
        </mxCell>
        <mxCell id="gyGsSk6S5XEilyyl5GHN-9" style="edgeStyle=orthogonalEdgeStyle;rounded=0;orthogonalLoop=1;jettySize=auto;html=1;exitX=1;exitY=0.5;exitDx=0;exitDy=0;entryX=0;entryY=0.5;entryDx=0;entryDy=0;" edge="1" parent="1" source="gyGsSk6S5XEilyyl5GHN-8" target="gyGsSk6S5XEilyyl5GHN-2">
          <mxGeometry relative="1" as="geometry" />
        </mxCell>
        <mxCell id="gyGsSk6S5XEilyyl5GHN-8" value="os_license_application_attachment&lt;br&gt;许可证备案附件&lt;br&gt;" style="rounded=0;whiteSpace=wrap;html=1;" vertex="1" parent="1">
          <mxGeometry x="-40" y="255" width="220" height="80" as="geometry" />
        </mxCell>
        <mxCell id="gyGsSk6S5XEilyyl5GHN-12" style="edgeStyle=orthogonalEdgeStyle;rounded=0;orthogonalLoop=1;jettySize=auto;html=1;exitX=0;exitY=0.5;exitDx=0;exitDy=0;entryX=1;entryY=0.5;entryDx=0;entryDy=0;" edge="1" parent="1" source="gyGsSk6S5XEilyyl5GHN-11" target="gyGsSk6S5XEilyyl5GHN-2">
          <mxGeometry relative="1" as="geometry" />
        </mxCell>
        <mxCell id="gyGsSk6S5XEilyyl5GHN-11" value="os_license_application_audit_record&lt;br&gt;许可证申请审核记录" style="rounded=0;whiteSpace=wrap;html=1;" vertex="1" parent="1">
          <mxGeometry x="670" y="195" width="240" height="80" as="geometry" />
        </mxCell>
        <mxCell id="gyGsSk6S5XEilyyl5GHN-14" style="edgeStyle=orthogonalEdgeStyle;rounded=0;orthogonalLoop=1;jettySize=auto;html=1;exitX=0.5;exitY=0;exitDx=0;exitDy=0;entryX=0.5;entryY=1;entryDx=0;entryDy=0;" edge="1" parent="1" source="gyGsSk6S5XEilyyl5GHN-13" target="gyGsSk6S5XEilyyl5GHN-2">
          <mxGeometry relative="1" as="geometry" />
        </mxCell>
        <mxCell id="gyGsSk6S5XEilyyl5GHN-13" value="os_license_record&lt;br&gt;许可证作业记录" style="rounded=0;whiteSpace=wrap;html=1;" vertex="1" parent="1">
          <mxGeometry x="353.75" y="370" width="162.5" height="70" as="geometry" />
        </mxCell>
        <mxCell id="gyGsSk6S5XEilyyl5GHN-15" value="os_license_cancel_option&lt;br&gt;许可证取消选项" style="rounded=0;whiteSpace=wrap;html=1;" vertex="1" parent="1">
          <mxGeometry x="70" y="532.5" width="190" height="75" as="geometry" />
        </mxCell>
        <mxCell id="gyGsSk6S5XEilyyl5GHN-17" style="edgeStyle=orthogonalEdgeStyle;rounded=0;orthogonalLoop=1;jettySize=auto;html=1;exitX=0.5;exitY=0;exitDx=0;exitDy=0;" edge="1" parent="1" source="gyGsSk6S5XEilyyl5GHN-16" target="gyGsSk6S5XEilyyl5GHN-13">
          <mxGeometry relative="1" as="geometry" />
        </mxCell>
        <mxCell id="gyGsSk6S5XEilyyl5GHN-16" value="os_license_cancel_option_record&lt;br&gt;许可证取消选项记录" style="rounded=0;whiteSpace=wrap;html=1;" vertex="1" parent="1">
          <mxGeometry x="313.75" y="540" width="242.5" height="60" as="geometry" />
        </mxCell>
        <mxCell id="gyGsSk6S5XEilyyl5GHN-19" style="edgeStyle=orthogonalEdgeStyle;rounded=0;orthogonalLoop=1;jettySize=auto;html=1;exitX=0;exitY=0.5;exitDx=0;exitDy=0;entryX=1;entryY=0.5;entryDx=0;entryDy=0;" edge="1" parent="1" source="gyGsSk6S5XEilyyl5GHN-18" target="gyGsSk6S5XEilyyl5GHN-13">
          <mxGeometry relative="1" as="geometry" />
        </mxCell>
        <mxCell id="gyGsSk6S5XEilyyl5GHN-18" value="os_license_extension_application_audit_record&lt;br&gt;许可证延期申请申请记录&lt;br&gt;" style="rounded=0;whiteSpace=wrap;html=1;" vertex="1" parent="1">
          <mxGeometry x="670" y="360" width="290" height="90" as="geometry" />
        </mxCell>
      </root>
    </mxGraphModel>
  </diagram>
</mxfile>
